<svg width="32" height="32" viewBox="0 0 32 32" fill="none" xmlns="http://www.w3.org/2000/svg">
  <g filter="url(#filter0_ii_10_790)">
    <path d="M12 0C9.79088 0 8 1.79088 8 4V6C8 7.10457 7.10457 8 6 8C2.68628 8 0 10.6863 0 14V26C0 29.3137 2.68628 32 6 32H26C29.3137 32 32 29.3137 32 26V14C32 10.6863 29.3137 8 26 8C24.8954 8 24 7.10457 24 6V4C24 1.79088 22.2091 0 20 0H12ZM20 6C20 7.10457 19.1046 8 18 8H14C12.8954 8 12 7.10457 12 6C12 4.89543 12.8954 4 14 4H18C19.1046 4 20 4.89543 20 6Z"/>
    <path d="M12 0C9.79088 0 8 1.79088 8 4V6C8 7.10457 7.10457 8 6 8C2.68628 8 0 10.6863 0 14V26C0 29.3137 2.68628 32 6 32H26C29.3137 32 32 29.3137 32 26V14C32 10.6863 29.3137 8 26 8C24.8954 8 24 7.10457 24 6V4C24 1.79088 22.2091 0 20 0H12ZM20 6C20 7.10457 19.1046 8 18 8H14C12.8954 8 12 7.10457 12 6C12 4.89543 12.8954 4 14 4H18C19.1046 4 20 4.89543 20 6Z"/>
  </g>
</svg>